<?xml version="1.0" standalone="no"?>
<!DOCTYPE svg PUBLIC "-//W3C//DTD SVG 20010904//EN"
 "http://www.w3.org/TR/2001/REC-SVG-20010904/DTD/svg10.dtd">
<svg version="1.0" xmlns="http://www.w3.org/2000/svg"
 width="600.000000pt" height="283.000000pt" viewBox="0 0 600.000000 283.000000"
 preserveAspectRatio="xMidYMid meet">

<g transform="translate(0.000000,283.000000) scale(0.100000,-0.100000)"
fill="#000000" stroke="none">
<path d="M1730 1858 c-25 -4 -94 -15 -155 -24 -60 -8 -116 -17 -124 -20 -10
-3 0 -19 35 -55 l49 -49 -78 -78 -77 -77 -76 76 -75 76 40 44 c26 29 35 46 28
50 -12 7 -329 51 -333 46 -4 -3 47 -341 52 -346 3 -3 28 19 57 47 l53 52 77
-78 77 -77 -78 -78 -78 -77 -49 50 -50 51 -22 -153 c-12 -84 -22 -165 -22
-179 l-1 -25 173 24 c94 14 174 27 177 29 2 2 -17 22 -43 44 -26 22 -47 46
-47 53 0 7 31 46 70 87 l69 74 76 -75 c41 -41 75 -77 75 -80 0 -3 -18 -23 -40
-45 -21 -22 -39 -45 -40 -50 0 -6 60 -18 138 -28 75 -10 152 -21 170 -24 39
-6 39 -10 12 175 -31 203 -22 189 -80 129 l-49 -52 -78 78 -78 77 77 77 78 78
50 -50 c27 -27 50 -47 50 -45 0 3 11 82 24 175 13 94 21 173 17 176 -3 3 -26
2 -51 -3z"/>
<path d="M3065 1853 c-159 -57 -259 -178 -287 -347 -21 -124 23 -269 111 -368
54 -60 164 -117 244 -125 l57 -6 0 82 c0 80 0 81 -25 81 -65 0 -148 60 -188
135 -18 33 -22 57 -22 135 0 78 4 102 22 135 47 87 124 135 215 135 170 -1
278 -181 222 -369 -20 -70 -91 -144 -154 -162 -25 -7 -47 -14 -48 -15 -2 -1
15 -35 38 -74 46 -79 43 -79 134 -33 152 77 246 274 216 452 -25 147 -111 264
-238 324 -57 26 -81 32 -157 34 -67 3 -103 -1 -140 -14z"/>
<path d="M220 1440 l0 -420 280 0 280 0 0 70 0 70 -195 0 -195 0 0 280 0 280
195 0 195 0 0 70 0 70 -280 0 -280 0 0 -420z"/>
<path d="M1930 1440 l0 -420 85 0 85 0 2 233 3 232 105 -157 c58 -87 107 -157
110 -158 3 0 92 133 198 295 184 284 192 297 192 345 l0 50 -69 0 -69 0 -124
-190 c-67 -104 -125 -189 -128 -189 -3 -1 -61 85 -130 189 l-125 190 -67 0
-68 0 0 -420z"/>
<path d="M3670 1440 l0 -420 90 0 90 0 2 258 3 258 176 -255 176 -256 92 -3
92 -3 -3 33 c-2 24 -75 139 -268 420 l-265 387 -92 1 -93 0 0 -420z"/>
<path d="M4210 1608 l0 -253 77 -55 c42 -30 82 -59 90 -63 11 -7 13 46 13 308
l0 315 -90 0 -90 0 0 -252z"/>
<path d="M4470 1440 l0 -420 280 0 280 0 0 70 0 70 -195 0 -195 0 0 280 0 280
195 0 195 0 0 70 0 70 -280 0 -280 0 0 -420z"/>
<path d="M5058 1828 c10 -18 66 -121 122 -228 57 -107 105 -197 106 -199 2 -2
24 14 50 35 25 21 55 46 66 55 19 15 18 20 -69 192 l-88 177 -103 0 -104 0 20
-32z"/>
<path d="M5477 1581 l-137 -279 0 -141 0 -141 90 0 90 0 0 140 0 140 139 257
c76 142 143 268 150 281 l12 22 -104 0 -104 0 -136 -279z"/>
<path d="M2613 1519 l-83 -60 0 -219 0 -220 90 0 90 0 0 280 c0 154 -3 280 -7
279 -5 0 -45 -27 -90 -60z"/>
<path d="M420 1503 c0 -5 17 -39 38 -78 l37 -70 93 -3 92 -3 0 81 0 80 -130 0
c-72 0 -130 -3 -130 -7z"/>
<path d="M4670 1505 c0 -2 17 -38 37 -80 l37 -75 93 0 93 0 0 80 0 80 -130 0
c-71 0 -130 -2 -130 -5z"/>
</g>
</svg>
